HIERARCHY
ROOT root
{
	OFFSET 0.000000 0.000000 0.000000
	CHANNELS 6 Xposition Yposition Zposition Zrotation Yrotation Xrotation
	JOINT lhip
	{
		OFFSET 0.058581 -0.082280 -0.017664
		CHANNELS 3 Zrotation Yrotation Xrotation
		JOINT lknee
		{
			OFFSET 0.043451 -0.386469 0.008037
			CHANNELS 3 Zrotation Yrotation Xrotation
			JOINT lankle
			{
				OFFSET -0.014790 -0.426874 -0.037428
				CHANNELS 3 Zrotation Yrotation Xrotation
				JOINT ltoe
				{
					OFFSET 0.041054 -0.060286 0.122042
					CHANNELS 3 Zrotation Yrotation Xrotation
					End Site
					{
						OFFSET 0.000000 0.000000 0.000000
					}
				}
			}
		}
	}
	JOINT rhip
	{
		OFFSET -0.060310 -0.090513 -0.013543
		CHANNELS 3 Zrotation Yrotation Xrotation
		JOINT rknee
		{
			OFFSET -0.043257 -0.383688 -0.004843
			CHANNELS 3 Zrotation Yrotation Xrotation
			JOINT rankle
			{
				OFFSET 0.019056 -0.420046 -0.034562
				CHANNELS 3 Zrotation Yrotation Xrotation
				JOINT rtoe
				{
					OFFSET -0.034840 -0.062106 0.130323
					CHANNELS 3 Zrotation Yrotation Xrotation
					End Site
					{
						OFFSET 0.000000 0.000000 0.000000
					}
				}
			}
		}
	}
	JOINT lowerback
	{
		OFFSET 0.004439 0.124404 -0.038385
		CHANNELS 3 Zrotation Yrotation Xrotation
		JOINT upperback
		{
			OFFSET 0.004488 0.137956 0.026820
			CHANNELS 3 Zrotation Yrotation Xrotation
			JOINT chest
			{
				OFFSET -0.002265 0.056032 0.002855
				CHANNELS 3 Zrotation Yrotation Xrotation
				JOINT lowerneck
				{
					OFFSET -0.013390 0.211636 -0.033468
					CHANNELS 3 Zrotation Yrotation Xrotation
					JOINT upperneck
					{
						OFFSET 0.010113 0.088937 0.050410
						CHANNELS 3 Zrotation Yrotation Xrotation
						End Site
						{
							OFFSET 0.000000 0.000000 0.000000
						}
					}
				}
				JOINT lclavicle
				{
					OFFSET 0.071702 0.114000 -0.018898
					CHANNELS 3 Zrotation Yrotation Xrotation
					JOINT lshoulder
					{
						OFFSET 0.122921 0.045205 -0.019046
						CHANNELS 3 Zrotation Yrotation Xrotation
						JOINT lelbow
						{
							OFFSET 0.255332 -0.015649 -0.022946
							CHANNELS 3 Zrotation Yrotation Xrotation
							JOINT lwrist
							{
								OFFSET 0.265709 0.012698 -0.007375
								CHANNELS 3 Zrotation Yrotation Xrotation
								End Site
								{
									OFFSET 0.000000 0.000000 0.000000
								}
							}
						}
					}
				}
				JOINT rclavicle
				{
					OFFSET -0.082954 0.112472 -0.023707
					CHANNELS 3 Zrotation Yrotation Xrotation
					JOINT rshoulder
					{
						OFFSET -0.113228 0.046853 -0.008472
						CHANNELS 3 Zrotation Yrotation Xrotation
						JOINT relbow
						{
							OFFSET -0.260127 -0.014369 -0.031269
							CHANNELS 3 Zrotation Yrotation Xrotation
							JOINT rwrist
							{
								OFFSET -0.269108 0.006794 -0.006027
								CHANNELS 3 Zrotation Yrotation Xrotation
								End Site
								{
									OFFSET 0.000000 0.000000 0.000000
								}
							}
						}
					}
				}
			}
		}
	}
}
MOTION
Frames: 10
Frame Time: 0.033333
-2.008762 0.264787 1.006976 88.206477 -0.795998 88.466117 0.425621 0.523571 0.178210 -2.725612 -9.008609 10.004359 3.115137 9.438704 -14.786571 0.000000 -0.000000 0.000000 -0.675496 -1.603657 -5.110208 2.273346 -0.793552 16.449503 5.176717 -4.918905 -11.099412 0.000000 -0.000000 0.000000 -0.025144 -0.054197 8.983190 0.825857 -1.414215 -6.005217 -0.731687 -2.788812 1.413165 6.263566 -7.919564 -8.187361 0.527981 -14.688009 6.425205 -28.084145 9.609413 -1.014256 -57.888651 -4.692894 8.100769 11.141919 -26.457726 3.956671 -1.906350 -2.309739 -2.155306 28.077377 -2.011816 -5.591777 54.691348 6.198262 11.486188 -16.468128 22.787424 -11.415828 3.384789 2.856849 -5.340708 
-2.007895 0.266433 1.006271 88.799370 -1.001333 88.820555 0.188732 0.165862 0.457259 -2.754829 -9.030041 8.634391 3.552845 9.485922 -14.396559 0.000000 -0.000000 0.000000 -1.094953 -1.438395 -5.358094 2.302903 -1.201243 16.434916 5.653490 -5.225241 -11.047452 0.000000 -0.000000 0.000000 0.147629 -0.818365 7.285171 0.807376 -2.925780 -4.510877 -1.424596 -1.789987 1.406147 6.267700 -7.085599 -8.273950 0.845965 -14.727573 6.185925 -27.430556 9.052857 -1.283519 -57.825288 -5.383129 8.098128 11.681225 -26.345220 2.932815 -1.741426 -2.352035 -2.001732 28.659506 -1.373473 -5.278123 55.496785 6.286813 11.503815 -16.893836 22.527071 -11.346083 3.369748 2.707809 -5.534166 
-2.006306 0.268127 1.006431 89.111408 -0.933211 89.145539 0.117475 0.285487 0.903787 -2.559458 -9.025362 7.044655 3.520064 9.397688 -13.838926 0.000000 -0.000000 0.000000 -1.123283 -1.389089 -5.534205 2.224963 -1.343039 16.200187 5.443050 -5.671414 -11.134119 0.000000 -0.000000 0.000000 0.183924 -0.830765 6.692169 0.829786 -2.888379 -4.734347 -1.355519 -2.118278 1.366541 6.043683 -6.910686 -7.985296 0.705066 -14.649056 6.784989 -27.242336 8.846058 -1.246007 -57.917184 -6.065116 8.199024 11.907096 -26.422062 2.836561 -1.564728 -2.306428 -2.004994 28.567994 -1.831201 -5.212815 56.174337 5.565643 11.906239 -16.840691 22.377038 -10.598054 3.490647 2.717442 -5.427228 
-2.005243 0.270692 1.006925 89.508333 -0.866158 89.533292 0.133542 0.269982 1.147162 -2.605873 -9.384496 5.777297 3.639401 9.481291 -13.495896 0.000000 -0.000000 0.000000 -1.094718 -1.323944 -5.961901 2.043250 -1.439663 16.315969 4.965466 -6.325370 -11.400443 0.000000 -0.000000 0.000000 -0.130742 -0.762433 6.345938 0.977419 -2.712767 -5.259066 -1.102957 -2.540141 1.233817 5.713796 -6.390075 -7.685028 0.532144 -14.065717 7.416525 -27.200923 8.638943 -1.054662 -57.758054 -6.871626 8.360730 12.038862 -27.217519 2.687799 -1.305648 -2.489868 -2.328671 28.746711 -2.226399 -5.121683 56.686686 4.496825 12.356330 -16.407614 21.818865 -9.766803 3.796652 2.488628 -5.392042 
-2.004422 0.272379 1.007043 89.534007 -0.815481 89.625215 0.117259 0.395918 1.248255 -2.475610 -9.330550 5.459752 3.268610 9.232496 -13.454771 0.000000 -0.000000 0.000000 -1.059343 -1.324351 -5.913827 1.834331 -1.607487 16.111532 4.815425 -6.467692 -11.430659 0.000000 -0.000000 0.000000 -0.196867 -0.882108 6.263981 0.941407 -2.623684 -5.443132 -1.001996 -2.557988 1.241406 5.753946 -5.876563 -7.815692 0.292266 -13.390909 7.826030 -27.180491 8.669403 -1.101040 -57.653333 -7.494078 8.369778 12.008661 -27.796619 2.581894 -1.153885 -2.675197 -2.763266 28.961377 -2.475375 -5.025200 57.139168 4.270681 12.609382 -16.127005 20.940383 -9.361644 4.000440 2.557185 -5.298481 
-2.003071 0.274446 1.007340 90.018228 -0.829636 89.910945 0.200457 0.213051 1.286277 -2.713880 -9.423666 4.767385 3.364668 8.976812 -13.350575 0.000000 -0.000000 0.000000 -1.111696 -1.576732 -6.112527 1.698784 -1.870563 16.150504 4.311648 -6.871845 -11.630408 0.000000 -0.000000 0.000000 -0.330722 -0.998754 6.036517 0.960190 -2.857204 -5.870412 -1.030373 -2.684852 1.170383 5.530927 -4.207565 -7.734074 0.179739 -11.780891 8.270163 -27.026393 8.847686 -0.936999 -57.440846 -8.055786 8.440535 11.776535 -28.866829 2.639069 -1.179567 -2.876374 -3.410719 29.357707 -2.896617 -4.896539 58.097280 3.939639 12.835629 -16.080591 19.348831 -8.864862 4.472751 2.622937 -5.231563 
-2.003252 0.276579 1.007210 90.219588 -0.764424 89.694854 0.158123 0.056985 1.535445 -2.724352 -9.368373 4.556167 3.412349 8.997133 -13.099810 0.000000 -0.000000 0.000000 -1.118383 -1.417011 -5.953933 1.565997 -2.103794 16.276374 3.935362 -7.251173 -11.883355 0.000000 -0.000000 0.000000 -0.575169 -0.783388 6.086016 0.994421 -2.624050 -5.411624 -0.759724 -3.003518 1.277173 5.408856 -2.680320 -8.103781 0.199473 -10.363152 8.258157 -26.950739 8.128160 -0.702579 -57.516932 -8.862901 8.637703 11.846142 -30.144704 2.351045 -1.156330 -2.953316 -3.862117 29.552364 -2.967515 -4.751491 58.735934 3.620827 12.918903 -15.970333 18.756183 -8.884912 4.883586 2.506761 -5.471108 
-2.002183 0.278305 1.007151 90.540239 -0.757742 89.892881 0.025545 -0.133392 1.327119 -2.703786 -9.513327 4.509176 3.483066 9.057009 -12.994197 0.000000 -0.000000 0.000000 -1.121684 -1.562231 -6.162535 1.372461 -2.205312 16.392863 3.487122 -7.582964 -12.186878 0.000000 -0.000000 0.000000 -0.466111 -1.226562 5.950962 0.888597 -3.040682 -5.391729 -0.920801 -2.667177 1.352608 5.146563 -0.760728 -9.005374 0.174899 -8.688831 8.267157 -26.743607 8.563649 -1.225812 -57.268311 -8.915508 8.885043 11.196389 -31.899747 3.249569 -1.383887 -3.055994 -4.228122 30.098532 -3.187264 -4.368237 59.570814 3.479063 13.155337 -16.087083 18.124199 -8.766870 5.377206 2.430903 -5.434066 
-2.001890 0.280286 1.006780 90.813547 -0.645408 89.785136 0.104065 -0.061197 1.426856 -2.824736 -9.500678 4.500940 3.684573 8.762151 -12.989065 0.000000 -0.000000 0.000000 -1.168273 -1.753236 -6.121960 1.421736 -2.313696 16.628978 3.417936 -7.533636 -12.425004 0.000000 -0.000000 0.000000 -0.839182 -0.746061 5.883214 0.970930 -2.797726 -5.022682 -0.600460 -2.921869 1.494245 4.936868 0.569807 -9.191750 0.293116 -7.420667 7.818056 -26.630517 7.672836 -0.659630 -57.567718 -9.674535 9.170923 11.387120 -32.873917 3.366117 -1.375062 -3.179538 -4.034588 30.404978 -3.333729 -4.008501 60.143560 3.055091 12.886570 -16.429040 17.943372 -9.259343 6.142685 2.499501 -5.888669 
-2.001528 0.282955 1.006451 91.133183 -0.572507 89.986629 -0.015162 -0.320614 1.207277 -2.789318 -9.629248 4.470582 3.789454 8.841189 -13.022714 0.000000 -0.000000 0.000000 -1.266554 -1.897181 -6.385582 1.409914 -2.408678 16.828268 3.511359 -7.582923 -12.593357 0.000000 -0.000000 0.000000 -0.927616 -0.604911 5.998274 0.921128 -2.750917 -5.181670 -0.528125 -2.852769 1.528794 4.731824 1.644542 -9.782589 0.277452 -6.582092 7.461062 -26.451500 7.503563 -0.765149 -57.730901 -9.836898 9.613820 10.807084 -34.260874 4.280130 -1.313182 -3.094048 -4.056050 30.764886 -3.665560 -3.551322 60.886444 2.579541 12.807334 -16.895387 17.705899 -9.560474 6.183298 2.410571 -5.968423 
